<svg xmlns="http://www.w3.org/2000/svg" xmlns:svg="http://www.w3.org/2000/svg" id="svg2" width="9367.923" height="5295.056" version="1.1" viewBox="0 0 8782.428 4964.115"><metadata id="metadata7"/><g id="g4157" style="display:inline" transform="translate(2203.3186,3074.6376)"><rect id="rect4667" width="251.899" height="251.899" x="1584.117" y="-2295.231" ry="0" style="display:inline;opacity:1;fill:none;fill-opacity:1;stroke:gray;stroke-width:9.63909;stroke-miterlimit:4;stroke-dasharray:none;stroke-opacity:1"/><path style="display:inline;opacity:1;fill:#000;fill-opacity:1;stroke:#000;stroke-width:7.04219;stroke-miterlimit:4;stroke-dasharray:none;stroke-opacity:1" id="path4673" d="m 1626.1528,-2045.7157 c -6.5177,6.5176 -20.8487,2.7539 -32.0091,-8.4066 -11.1605,-11.1605 -14.9243,-25.4915 -8.4066,-32.0091 6.5176,-6.5177 109.8962,-91.8016 121.0567,-80.641 11.1605,11.1604 -74.1234,114.5391 -80.641,121.0567 z"/><rect style="display:inline;opacity:1;fill:none;fill-opacity:1;stroke:gray;stroke-width:9.63909;stroke-miterlimit:4;stroke-dasharray:none;stroke-opacity:1" id="rect4689" width="251.899" height="251.899" x="1937.816" y="-2295.231" ry="0"/><path style="display:inline;opacity:1;fill:#000;fill-opacity:1;stroke:#000;stroke-width:7.04219;stroke-miterlimit:4;stroke-dasharray:none;stroke-opacity:1" id="path4705" d="m 1917.5745,-2141.0222 c -9.2173,0 -16.6894,-12.7949 -16.6894,-28.5783 0,-15.7833 7.4721,-28.5782 16.6894,-28.5782 9.2174,0 142.6219,12.7949 142.6219,28.5782 0,15.7834 -133.4045,28.5783 -142.6219,28.5783 z"/><text id="text4709" x="1460.902" y="-2077.735" style="font-style:normal;font-weight:400;font-size:10.4615px;line-height:0%;font-family:sans-serif;letter-spacing:0;word-spacing:0;fill:#000;fill-opacity:1;stroke:none;stroke-width:.871795px;stroke-linecap:butt;stroke-linejoin:miter;stroke-opacity:1" xml:space="preserve"><tspan style="font-size:249.856px;line-height:1.25;text-align:end;text-anchor:end;stroke-width:.871795px" id="tspan4711" x="1460.902" y="-2077.735">Profile 1</tspan></text><rect style="display:inline;opacity:1;fill:none;fill-opacity:1;stroke:gray;stroke-width:9.63909;stroke-miterlimit:4;stroke-dasharray:none;stroke-opacity:1" id="rect4719" width="251.899" height="251.899" x="1584.117" y="-1928.722" ry="0"/><path id="path4725" d="m 1626.1528,-1679.206 c -6.5177,6.5176 -20.8487,2.7539 -32.0091,-8.4066 -11.1605,-11.1605 -14.9243,-25.4915 -8.4066,-32.0091 6.5176,-6.5177 109.8962,-91.8016 121.0567,-80.641 11.1605,11.1604 -74.1234,114.5391 -80.641,121.0567 z" style="display:inline;opacity:1;fill:#000;fill-opacity:1;stroke:#000;stroke-width:7.04219;stroke-miterlimit:4;stroke-dasharray:none;stroke-opacity:1"/><rect id="rect4741" width="251.899" height="251.899" x="1937.816" y="-1928.722" ry="0" style="display:inline;opacity:1;fill:none;fill-opacity:1;stroke:gray;stroke-width:9.63909;stroke-miterlimit:4;stroke-dasharray:none;stroke-opacity:1"/><path style="opacity:1;fill:#000;fill-opacity:1;stroke:#000;stroke-width:7.04219;stroke-miterlimit:4;stroke-dasharray:none;stroke-opacity:1" id="path4759" d="m 2092.3444,-1946.3683 c 0,-9.2173 -12.7949,-16.6895 -28.5782,-16.6895 -15.7833,0 -28.5783,7.4722 -28.5783,16.6895 0,9.2174 12.7949,142.6219 28.5783,142.6219 15.7833,0 28.5783,-133.4045 28.5782,-142.6219 z"/><text xml:space="preserve" style="font-style:normal;font-weight:400;font-size:10.4615px;line-height:0%;font-family:sans-serif;letter-spacing:0;word-spacing:0;fill:#000;fill-opacity:1;stroke:none;stroke-width:.871795px;stroke-linecap:butt;stroke-linejoin:miter;stroke-opacity:1" id="text4761" x="1460.902" y="-1711.226"><tspan id="tspan4763" x="1460.902" y="-1711.226" style="font-size:249.856px;line-height:1.25;text-align:end;text-anchor:end;stroke-width:.871795px">Profile 2</tspan></text><rect id="rect4771" width="251.899" height="251.899" x="1584.117" y="-1562.212" ry="0" style="display:inline;opacity:1;fill:none;fill-opacity:1;stroke:gray;stroke-width:9.63909;stroke-miterlimit:4;stroke-dasharray:none;stroke-opacity:1"/><path style="display:inline;opacity:1;fill:#000;fill-opacity:1;stroke:#000;stroke-width:7.04219;stroke-miterlimit:4;stroke-dasharray:none;stroke-opacity:1" id="path4777" d="m 1626.1528,-1312.6964 c -6.5177,6.5177 -20.8487,2.7539 -32.0091,-8.4065 -11.1605,-11.1606 -14.9243,-25.4915 -8.4066,-32.0092 6.5176,-6.5176 109.8962,-91.8015 121.0567,-80.641 11.1605,11.1605 -74.1234,114.5391 -80.641,121.0567 z"/><rect style="display:inline;opacity:1;fill:none;fill-opacity:1;stroke:gray;stroke-width:9.63909;stroke-miterlimit:4;stroke-dasharray:none;stroke-opacity:1" id="rect4793" width="251.899" height="251.899" x="1937.816" y="-1562.212" ry="0"/><path id="path4807" d="m 2209.0683,-1464.719 c 9.2174,0 16.6896,12.795 16.6896,28.5782 0,15.7833 -7.4722,28.5782 -16.6896,28.5782 -9.2173,10e-5 -142.6219,-12.7949 -142.6219,-28.5782 0,-15.7833 133.4046,-28.5782 142.6219,-28.5782 z" style="display:inline;opacity:1;fill:#000;fill-opacity:1;stroke:#000;stroke-width:7.04219;stroke-miterlimit:4;stroke-dasharray:none;stroke-opacity:1"/><text id="text4813" x="1460.902" y="-1344.716" style="font-style:normal;font-weight:400;font-size:10.4615px;line-height:0%;font-family:sans-serif;letter-spacing:0;word-spacing:0;fill:#000;fill-opacity:1;stroke:none;stroke-width:.871795px;stroke-linecap:butt;stroke-linejoin:miter;stroke-opacity:1" xml:space="preserve"><tspan style="font-size:249.856px;line-height:1.25;text-align:end;text-anchor:end;stroke-width:.871795px" id="tspan4815" x="1460.902" y="-1344.716">Profile 3</tspan></text><rect style="display:inline;opacity:1;fill:none;fill-opacity:1;stroke:gray;stroke-width:9.63909;stroke-miterlimit:4;stroke-dasharray:none;stroke-opacity:1" id="rect4823" width="251.899" height="251.899" x="1584.117" y="-122.132" ry="0"/><path id="path4829" d="m 1626.1528,127.38364 c -6.5177,6.51771 -20.8487,2.75391 -32.0091,-8.40655 -11.1605,-11.16054 -14.9243,-25.491449 -8.4066,-32.009159 6.5176,-6.51763 109.8962,-91.8014902 121.0567,-80.6410302 11.1605,11.1604602 -74.1234,114.5391092 -80.641,121.0567392 z" style="display:inline;opacity:1;fill:#000;fill-opacity:1;stroke:#000;stroke-width:7.04219;stroke-miterlimit:4;stroke-dasharray:none;stroke-opacity:1"/><rect id="rect4845" width="251.899" height="251.899" x="1937.816" y="-122.132" ry="0" style="display:inline;opacity:1;fill:none;fill-opacity:1;stroke:gray;stroke-width:9.63909;stroke-miterlimit:4;stroke-dasharray:none;stroke-opacity:1"/><path id="path4849" d="m 2092.3444,148.36077 c 0,9.21731 -12.7949,16.68946 -28.5782,16.68946 -15.7833,0 -28.5783,-7.47215 -28.5783,-16.68946 0,-9.2174 12.7949,-142.6218992 28.5783,-142.6218992 15.7833,0 28.5783,133.4044992 28.5782,142.6218992 z" style="display:inline;opacity:1;fill:#000;fill-opacity:1;stroke:#000;stroke-width:7.04219;stroke-miterlimit:4;stroke-dasharray:none;stroke-opacity:1"/><text xml:space="preserve" style="font-style:normal;font-weight:400;font-size:10.4615px;line-height:0%;font-family:sans-serif;letter-spacing:0;word-spacing:0;fill:#000;fill-opacity:1;stroke:none;stroke-width:.871795px;stroke-linecap:butt;stroke-linejoin:miter;stroke-opacity:1" id="text4865" x="1460.902" y="95.364"><tspan id="tspan4867" x="1460.902" y="95.364" style="font-size:249.856px;line-height:1.25;text-align:end;text-anchor:end;stroke-width:.871795px">Calibrate Gyro</tspan></text><rect style="display:inline;opacity:1;fill:none;fill-opacity:1;stroke:gray;stroke-width:9.63909;stroke-miterlimit:4;stroke-dasharray:none;stroke-opacity:1" id="rect4875" width="251.899" height="251.899" x="1584.117" y="244.377" ry="0"/><path style="display:inline;opacity:1;fill:#000;fill-opacity:1;stroke:#000;stroke-width:7.04219;stroke-miterlimit:4;stroke-dasharray:none;stroke-opacity:1" id="path4887" d="m 1626.5931,246.0051 c -6.5177,-6.51771 -20.8486,-2.75391 -32.0091,8.40655 -11.1605,11.16054 -14.9243,25.49145 -8.4066,32.00917 6.5176,6.51762 109.8962,91.80148 121.0567,80.64102 11.1605,-11.16054 -74.1233,-114.53911 -80.641,-121.05674 z"/><rect id="rect4897" width="251.899" height="251.899" x="1937.816" y="244.377" ry="0" style="display:inline;opacity:1;fill:none;fill-opacity:1;stroke:gray;stroke-width:9.63909;stroke-miterlimit:4;stroke-dasharray:none;stroke-opacity:1"/><path id="path4901" d="m 2092.3444,514.87045 c 0,9.21732 -12.7949,16.68947 -28.5782,16.68947 -15.7833,0 -28.5783,-7.47215 -28.5783,-16.68947 0,-9.2174 12.7949,-142.62186 28.5783,-142.62186 15.7833,0 28.5783,133.40446 28.5782,142.62186 z" style="display:inline;opacity:1;fill:#000;fill-opacity:1;stroke:#000;stroke-width:7.04219;stroke-miterlimit:4;stroke-dasharray:none;stroke-opacity:1"/><text xml:space="preserve" style="font-style:normal;font-weight:400;font-size:10.4615px;line-height:0%;font-family:sans-serif;letter-spacing:0;word-spacing:0;fill:#000;fill-opacity:1;stroke:none;stroke-width:.871795px;stroke-linecap:butt;stroke-linejoin:miter;stroke-opacity:1" id="text4917" x="1460.902" y="461.874"><tspan id="tspan4919" x="1460.902" y="461.874" style="font-size:249.856px;line-height:1.25;text-align:end;text-anchor:end;stroke-width:.871795px">Calibrate Acc</tspan></text><rect id="rect4927" width="251.899" height="251.899" x="1586.493" y="607.855" ry="0" style="display:inline;opacity:1;fill:none;fill-opacity:1;stroke:gray;stroke-width:9.63909;stroke-miterlimit:4;stroke-dasharray:none;stroke-opacity:1"/><path style="display:inline;opacity:1;fill:#000;fill-opacity:1;stroke:#000;stroke-width:7.04219;stroke-miterlimit:4;stroke-dasharray:none;stroke-opacity:1" id="path4937" d="m 1795.5863,609.48286 c 6.5177,-6.51771 20.8487,-2.75391 32.0092,8.40655 11.1604,11.16054 14.9242,25.49145 8.4065,32.00908 -6.5176,6.51762 -109.8961,91.80157 -121.0567,80.64111 -11.1604,-11.16063 74.1234,-114.53911 80.641,-121.05674 z"/><rect style="display:inline;opacity:1;fill:none;fill-opacity:1;stroke:gray;stroke-width:9.63909;stroke-miterlimit:4;stroke-dasharray:none;stroke-opacity:1" id="rect4949" width="251.899" height="251.899" x="1940.193" y="607.855" ry="0"/><path style="display:inline;opacity:1;fill:#000;fill-opacity:1;stroke:#000;stroke-width:7.04219;stroke-miterlimit:4;stroke-dasharray:none;stroke-opacity:1" id="path4953" d="m 2094.7212,878.34823 c 0,9.2173 -12.7949,16.6895 -28.5783,16.6895 -15.7832,0 -28.5782,-7.4722 -28.5782,-16.6895 0,-9.2174 12.7949,-142.62188 28.5782,-142.62188 15.7834,0 28.5783,133.40448 28.5783,142.62188 z"/><text id="text4969" x="1463.279" y="825.351" style="font-style:normal;font-weight:400;font-size:10.4615px;line-height:0%;font-family:sans-serif;letter-spacing:0;word-spacing:0;fill:#000;fill-opacity:1;stroke:none;stroke-width:.871795px;stroke-linecap:butt;stroke-linejoin:miter;stroke-opacity:1" xml:space="preserve"><tspan style="font-size:249.856px;line-height:1.25;text-align:end;text-anchor:end;stroke-width:.871795px" id="tspan4971" x="1463.279" y="825.351">Calibrate Compass</tspan></text><rect id="rect5607" width="251.899" height="251.899" x="1591.064" y="1337.769" ry="0" style="display:inline;opacity:1;fill:none;fill-opacity:1;stroke:gray;stroke-width:9.63909;stroke-miterlimit:4;stroke-dasharray:none;stroke-opacity:1"/><path style="display:inline;opacity:1;fill:#000;fill-opacity:1;stroke:#000;stroke-width:7.04219;stroke-miterlimit:4;stroke-dasharray:none;stroke-opacity:1" id="path5613" d="m 1633.0994,1587.2847 c -6.5177,6.5177 -20.8487,2.7539 -32.0092,-8.4066 -11.1605,-11.1605 -14.9243,-25.4915 -8.4065,-32.0091 6.5176,-6.5177 109.8962,-91.8015 121.0567,-80.641 11.1605,11.1605 -74.1234,114.539 -80.641,121.0567 z"/><rect style="display:inline;opacity:1;fill:none;fill-opacity:1;stroke:gray;stroke-width:9.63909;stroke-miterlimit:4;stroke-dasharray:none;stroke-opacity:1" id="rect5629" width="251.899" height="251.899" x="1944.763" y="1337.769" ry="0"/><path id="path5639" d="m 2153.8559,1339.3964 c 6.5177,-6.5177 20.8487,-2.7539 32.0091,8.4065 11.1605,11.1606 14.9243,25.4915 8.4066,32.0092 -6.5177,6.5176 -109.8962,91.8015 -121.0567,80.641 -11.1605,-11.1605 74.1233,-114.5391 80.641,-121.0567 z" style="display:inline;opacity:1;fill:#000;fill-opacity:1;stroke:#000;stroke-width:7.04219;stroke-miterlimit:4;stroke-dasharray:none;stroke-opacity:1"/><text id="text5649" x="1473.689" y="1531.906" style="font-style:normal;font-weight:400;font-size:10.4615px;line-height:0%;font-family:sans-serif;letter-spacing:0;word-spacing:0;fill:#000;fill-opacity:1;stroke:none;stroke-width:.871795px;stroke-linecap:butt;stroke-linejoin:miter;stroke-opacity:1" xml:space="preserve"><tspan style="font-size:249.856px;line-height:1.25;text-align:end;text-anchor:end;stroke-width:.871795px" id="tspan5651" x="1473.689" y="1531.906">In-flight Calibration Controls</tspan></text><rect style="display:inline;opacity:1;fill:none;fill-opacity:1;stroke:gray;stroke-width:9.63909;stroke-miterlimit:4;stroke-dasharray:none;stroke-opacity:1" id="rect5659" width="251.899" height="251.899" x="5828.351" y="-2305.956" ry="0"/><path id="path5677" d="m 5982.8787,-2323.603 c 0,-9.2173 -12.7949,-16.6894 -28.5782,-16.6894 -15.7833,0 -28.5782,7.4721 -28.5782,16.6894 0,9.2173 12.7949,142.6218 28.5782,142.6218 15.7833,0 28.5782,-133.4045 28.5782,-142.6218 z" style="opacity:1;fill:#000;fill-opacity:1;stroke:#000;stroke-width:7.04219;stroke-miterlimit:4;stroke-dasharray:none;stroke-opacity:1"/><rect id="rect5681" width="251.899" height="251.899" x="6182.05" y="-2305.956" ry="0" style="display:inline;opacity:1;fill:none;fill-opacity:1;stroke:gray;stroke-width:9.63909;stroke-miterlimit:4;stroke-dasharray:none;stroke-opacity:1"/><path id="path5697" d="m 6161.8085,-2151.7473 c -9.2174,0 -16.6894,-12.7949 -16.6894,-28.5782 0,-15.7833 7.472,-28.5782 16.6894,-28.5782 9.2173,0 142.6219,12.7949 142.6219,28.5782 0,15.7833 -133.4046,28.5782 -142.6219,28.5782 z" style="display:inline;opacity:1;fill:#000;fill-opacity:1;stroke:#000;stroke-width:7.04219;stroke-miterlimit:4;stroke-dasharray:none;stroke-opacity:1"/><text xml:space="preserve" style="font-style:normal;font-weight:400;font-size:10.4615px;line-height:0%;font-family:sans-serif;letter-spacing:0;word-spacing:0;fill:#000;fill-opacity:1;stroke:none;stroke-width:.871795px;stroke-linecap:butt;stroke-linejoin:miter;stroke-opacity:1" id="text5701" x="5710.976" y="-2111.819"><tspan id="tspan5703" x="5710.976" y="-2111.819" style="font-size:249.856px;line-height:1.25;text-align:end;text-anchor:end;stroke-width:.871795px">Trim Acc Left</tspan></text><rect style="display:inline;opacity:1;fill:none;fill-opacity:1;stroke:gray;stroke-width:9.63909;stroke-miterlimit:4;stroke-dasharray:none;stroke-opacity:1" id="rect5711" width="251.899" height="251.899" x="5828.351" y="-1939.447" ry="0"/><path id="path5729" d="m 5982.8787,-1957.0932 c 0,-9.2174 -12.7949,-16.6896 -28.5782,-16.6896 -15.7833,0 -28.5782,7.4722 -28.5782,16.6896 0,9.2173 12.7949,142.6218 28.5782,142.6218 15.7833,0 28.5782,-133.4045 28.5782,-142.6218 z" style="opacity:1;fill:#000;fill-opacity:1;stroke:#000;stroke-width:7.04219;stroke-miterlimit:4;stroke-dasharray:none;stroke-opacity:1"/><rect id="rect5733" width="251.899" height="251.899" x="6182.05" y="-1939.447" ry="0" style="display:inline;opacity:1;fill:none;fill-opacity:1;stroke:gray;stroke-width:9.63909;stroke-miterlimit:4;stroke-dasharray:none;stroke-opacity:1"/><path style="display:inline;opacity:1;fill:#000;fill-opacity:1;stroke:#000;stroke-width:7.04219;stroke-miterlimit:4;stroke-dasharray:none;stroke-opacity:1" id="path5747" d="m 6453.3023,-1841.9536 c 9.2173,0 16.6895,12.7949 16.6895,28.5782 0,15.7834 -7.4722,28.5783 -16.6895,28.5783 -9.2174,0 -142.6219,-12.7949 -142.6219,-28.5783 0,-15.7833 133.4045,-28.5782 142.6219,-28.5782 z"/><text xml:space="preserve" style="font-style:normal;font-weight:400;font-size:10.4615px;line-height:0%;font-family:sans-serif;letter-spacing:0;word-spacing:0;fill:#000;fill-opacity:1;stroke:none;stroke-width:.871795px;stroke-linecap:butt;stroke-linejoin:miter;stroke-opacity:1" id="text5753" x="5710.976" y="-1745.31"><tspan id="tspan5755" x="5710.976" y="-1745.31" style="font-size:249.856px;line-height:1.25;text-align:end;text-anchor:end;stroke-width:.871795px">Trim Acc Right</tspan></text><rect id="rect5763" width="251.899" height="251.899" x="5828.351" y="-1572.937" ry="0" style="display:inline;opacity:1;fill:none;fill-opacity:1;stroke:gray;stroke-width:9.63909;stroke-miterlimit:4;stroke-dasharray:none;stroke-opacity:1"/><path style="opacity:1;fill:#000;fill-opacity:1;stroke:#000;stroke-width:7.04219;stroke-miterlimit:4;stroke-dasharray:none;stroke-opacity:1" id="path5781" d="m 5982.8787,-1590.5835 c 0,-9.2174 -12.7949,-16.6895 -28.5782,-16.6895 -15.7833,0 -28.5782,7.4721 -28.5782,16.6895 0,9.2173 12.7949,142.6218 28.5782,142.6218 15.7833,0 28.5782,-133.4045 28.5782,-142.6218 z"/><rect style="display:inline;opacity:1;fill:none;fill-opacity:1;stroke:gray;stroke-width:9.63909;stroke-miterlimit:4;stroke-dasharray:none;stroke-opacity:1" id="rect5785" width="251.899" height="251.899" x="6182.05" y="-1572.937" ry="0"/><path id="path5803" d="m 6336.5784,-1590.5835 c 0,-9.2174 -12.7949,-16.6895 -28.5782,-16.6895 -15.7834,0 -28.5783,7.4721 -28.5783,16.6895 0,9.2173 12.7949,142.6218 28.5783,142.6218 15.7833,0 28.5782,-133.4045 28.5782,-142.6218 z" style="opacity:1;fill:#000;fill-opacity:1;stroke:#000;stroke-width:7.04219;stroke-miterlimit:4;stroke-dasharray:none;stroke-opacity:1"/><text id="text5805" x="5710.976" y="-1378.8" style="font-style:normal;font-weight:400;font-size:10.4615px;line-height:0%;font-family:sans-serif;letter-spacing:0;word-spacing:0;fill:#000;fill-opacity:1;stroke:none;stroke-width:.871795px;stroke-linecap:butt;stroke-linejoin:miter;stroke-opacity:1" xml:space="preserve"><tspan style="font-size:249.856px;line-height:1.25;text-align:end;text-anchor:end;stroke-width:.871795px" id="tspan5807" x="5710.976" y="-1378.8">Trim Acc Forwards</tspan></text><rect style="display:inline;opacity:1;fill:none;fill-opacity:1;stroke:gray;stroke-width:9.63909;stroke-miterlimit:4;stroke-dasharray:none;stroke-opacity:1" id="rect5815" width="251.899" height="251.899" x="5828.351" y="-1206.427" ry="0"/><path id="path5833" d="m 5982.8787,-1224.0738 c 0,-9.2174 -12.7949,-16.6895 -28.5782,-16.6895 -15.7833,0 -28.5782,7.4721 -28.5782,16.6895 0,9.2173 12.7949,142.6218 28.5782,142.6218 15.7833,0 28.5782,-133.4045 28.5782,-142.6218 z" style="opacity:1;fill:#000;fill-opacity:1;stroke:#000;stroke-width:7.04219;stroke-miterlimit:4;stroke-dasharray:none;stroke-opacity:1"/><rect id="rect5837" width="251.899" height="251.899" x="6182.05" y="-1206.427" ry="0" style="display:inline;opacity:1;fill:none;fill-opacity:1;stroke:gray;stroke-width:9.63909;stroke-miterlimit:4;stroke-dasharray:none;stroke-opacity:1"/><path id="path5841" d="m 6336.5784,-935.93448 c 0,9.21735 -12.7949,16.6895 -28.5782,16.6895 -15.7834,0 -28.5783,-7.47215 -28.5783,-16.6895 0,-9.21736 12.7949,-142.62192 28.5783,-142.62192 15.7833,0 28.5782,133.40456 28.5782,142.62192 z" style="display:inline;opacity:1;fill:#000;fill-opacity:1;stroke:#000;stroke-width:7.04219;stroke-miterlimit:4;stroke-dasharray:none;stroke-opacity:1"/><text xml:space="preserve" style="font-style:normal;font-weight:400;font-size:10.4615px;line-height:0%;font-family:sans-serif;letter-spacing:0;word-spacing:0;fill:#000;fill-opacity:1;stroke:none;stroke-width:.871795px;stroke-linecap:butt;stroke-linejoin:miter;stroke-opacity:1" id="text5857" x="5710.976" y="-1012.29"><tspan id="tspan5859" x="5710.976" y="-1012.29" style="font-size:249.856px;line-height:1.25;text-align:end;text-anchor:end;stroke-width:.871795px">Trim Acc Backwards</tspan></text><rect id="rect5867" width="251.899" height="251.899" x="5828.351" y="-839.918" ry="0" style="display:inline;opacity:1;fill:none;fill-opacity:1;stroke:gray;stroke-width:9.63909;stroke-miterlimit:4;stroke-dasharray:none;stroke-opacity:1"/><path id="path5871" d="m 5982.8787,-569.42473 c 0,9.21732 -12.7949,16.68947 -28.5782,16.68947 -15.7833,0 -28.5782,-7.47215 -28.5782,-16.68947 0,-9.2174 12.7949,-142.62189 28.5782,-142.62189 15.7833,0 28.5782,133.40449 28.5782,142.62189 z" style="display:inline;opacity:1;fill:#000;fill-opacity:1;stroke:#000;stroke-width:7.04219;stroke-miterlimit:4;stroke-dasharray:none;stroke-opacity:1"/><rect style="display:inline;opacity:1;fill:none;fill-opacity:1;stroke:gray;stroke-width:9.63909;stroke-miterlimit:4;stroke-dasharray:none;stroke-opacity:1" id="rect5889" width="251.899" height="251.899" x="6182.05" y="-839.918" ry="0"/><path style="display:inline;opacity:1;fill:#000;fill-opacity:1;stroke:#000;stroke-width:7.04219;stroke-miterlimit:4;stroke-dasharray:none;stroke-opacity:1" id="path5901" d="m 6224.5267,-838.29014 c -6.5177,-6.51766 -20.8487,-2.7539 -32.0091,8.4066 -11.1605,11.16049 -14.9243,25.49145 -8.4066,32.00911 6.5177,6.51766 109.8962,91.80151 121.0567,80.64102 11.1605,-11.16049 -74.1233,-114.53908 -80.641,-121.05673 z"/><text id="text5909" x="5710.976" y="-645.781" style="font-style:normal;font-weight:400;font-size:10.4615px;line-height:0%;font-family:sans-serif;letter-spacing:0;word-spacing:0;fill:#000;fill-opacity:1;stroke:none;stroke-width:.871795px;stroke-linecap:butt;stroke-linejoin:miter;stroke-opacity:1" xml:space="preserve"><tspan style="font-size:249.856px;line-height:1.25;text-align:end;text-anchor:end;stroke-width:.871795px" id="tspan5911" x="5710.976" y="-645.781">Save Waypoint Mission</tspan></text><rect id="rect5919" width="251.899" height="251.899" x="5828.351" y="-473.408" ry="0" style="display:inline;opacity:1;fill:none;fill-opacity:1;stroke:gray;stroke-width:9.63909;stroke-miterlimit:4;stroke-dasharray:none;stroke-opacity:1"/><path id="path5923" d="m 5982.8787,-202.91498 c 0,9.21731 -12.7949,16.68947 -28.5782,16.68947 -15.7833,0 -28.5782,-7.47216 -28.5782,-16.68947 0,-9.2174 12.7949,-142.62193 28.5782,-142.62193 15.7833,0 28.5782,133.40453 28.5782,142.62193 z" style="display:inline;opacity:1;fill:#000;fill-opacity:1;stroke:#000;stroke-width:7.04219;stroke-miterlimit:4;stroke-dasharray:none;stroke-opacity:1"/><rect id="rect5919-7" width="251.899" height="251.899" x="5828.351" y="-116.509" ry="0" style="display:inline;fill:none;fill-opacity:1;stroke:gray;stroke-width:9.63909;stroke-miterlimit:4;stroke-dasharray:none;stroke-opacity:1"/><path id="path5923-5" d="m 5982.8784,153.98439 c 0,9.2173 -12.7949,16.6895 -28.5782,16.6895 -15.7833,0 -28.5782,-7.4722 -28.5782,-16.6895 0,-9.2174 12.7949,-142.621885 28.5782,-142.621885 15.7833,0 28.5782,133.404485 28.5782,142.621885 z" style="display:inline;fill:#000;fill-opacity:1;stroke:#000;stroke-width:7.04219;stroke-miterlimit:4;stroke-dasharray:none;stroke-opacity:1"/><rect style="display:inline;opacity:1;fill:none;fill-opacity:1;stroke:gray;stroke-width:9.63909;stroke-miterlimit:4;stroke-dasharray:none;stroke-opacity:1" id="rect5941" width="251.899" height="251.899" x="6182.05" y="-473.408" ry="0"/><path id="path5951" d="m 6391.1433,-471.78039 c 6.5177,-6.51771 20.8487,-2.75391 32.0091,8.40655 11.1605,11.16054 14.9243,25.49145 8.4066,32.00916 -6.5177,6.51763 -109.8962,91.80149 -121.0567,80.64103 -11.1605,-11.16054 74.1233,-114.53911 80.641,-121.05674 z" style="display:inline;opacity:1;fill:#000;fill-opacity:1;stroke:#000;stroke-width:7.04219;stroke-miterlimit:4;stroke-dasharray:none;stroke-opacity:1"/><text id="text5961" x="5710.976" y="-279.271" style="font-style:normal;font-weight:400;font-size:10.4615px;line-height:0%;font-family:sans-serif;letter-spacing:0;word-spacing:0;fill:#000;fill-opacity:1;stroke:none;stroke-width:.871795px;stroke-linecap:butt;stroke-linejoin:miter;stroke-opacity:1" xml:space="preserve"><tspan style="font-size:249.856px;line-height:1.25;text-align:end;text-anchor:end;stroke-width:.871795px" id="tspan5963" x="5710.976" y="-279.271">Load Waypoint Mission</tspan></text><text id="text5961-3" x="5714.945" y="78.962" style="font-style:normal;font-weight:400;font-size:10.4615px;line-height:0%;font-family:sans-serif;letter-spacing:0;word-spacing:0;display:inline;fill:#000;fill-opacity:1;stroke:none;stroke-width:.871795px;stroke-linecap:butt;stroke-linejoin:miter;stroke-opacity:1" xml:space="preserve"><tspan style="font-size:249.856px;line-height:1.25;text-align:end;text-anchor:end;stroke-width:.871795px" id="tspan5963-6" x="5714.945" y="78.962">Unload Waypoint Mission</tspan></text><rect style="display:inline;opacity:1;fill:none;fill-opacity:1;stroke:gray;stroke-width:9.63909;stroke-miterlimit:4;stroke-dasharray:none;stroke-opacity:1" id="rect5971" width="251.899" height="251.899" x="5828.351" y="1339.449" ry="0"/><path id="path5977" d="m 5870.3864,1588.965 c -6.5177,6.5177 -20.8487,2.7539 -32.0092,-8.4066 -11.1605,-11.1605 -14.9243,-25.4914 -8.4065,-32.0091 6.5176,-6.5177 109.8962,-91.8015 121.0567,-80.6411 11.1605,11.1606 -74.1234,114.5392 -80.641,121.0568 z" style="display:inline;opacity:1;fill:#000;fill-opacity:1;stroke:#000;stroke-width:7.04219;stroke-miterlimit:4;stroke-dasharray:none;stroke-opacity:1"/><rect id="rect5993" width="251.899" height="251.899" x="6182.05" y="1339.449" ry="0" style="display:inline;opacity:1;fill:none;fill-opacity:1;stroke:gray;stroke-width:9.63909;stroke-miterlimit:4;stroke-dasharray:none;stroke-opacity:1"/><path id="path6001" d="m 6391.1429,1588.965 c 6.5177,6.5177 20.8487,2.7539 32.0091,-8.4066 11.1605,-11.1605 14.9243,-25.4914 8.4066,-32.0091 -6.5177,-6.5177 -109.8962,-91.8015 -121.0567,-80.6411 -11.1605,11.1606 74.1233,114.5392 80.641,121.0568 z" style="display:inline;opacity:1;fill:#000;fill-opacity:1;stroke:#000;stroke-width:7.04219;stroke-miterlimit:4;stroke-dasharray:none;stroke-opacity:1"/><rect id="rect5993-3" width="251.899" height="251.899" x="6192.131" y="-121.083" ry="0" style="display:inline;fill:none;fill-opacity:1;stroke:gray;stroke-width:9.63909;stroke-miterlimit:4;stroke-dasharray:none;stroke-opacity:1"/><path id="path6001-5" d="m 6401.2239,128.4327 c 6.5176,6.51769 20.8486,2.75389 32.0091,-8.40655 11.1605,-11.16054 14.9243,-25.491453 8.4065,-32.009163 C 6435.1219,81.499365 6331.7433,-3.7845 6320.5829,7.3759649 6309.4223,18.536505 6394.7062,121.91507 6401.2239,128.4327 Z" style="display:inline;fill:#000;fill-opacity:1;stroke:#000;stroke-width:7.04219;stroke-miterlimit:4;stroke-dasharray:none;stroke-opacity:1"/><text xml:space="preserve" style="font-style:normal;font-weight:400;font-size:10.4615px;line-height:0%;font-family:sans-serif;letter-spacing:0;word-spacing:0;fill:#000;fill-opacity:1;stroke:none;stroke-width:.871795px;stroke-linecap:butt;stroke-linejoin:miter;stroke-opacity:1" id="text6013" x="5733.017" y="1534.242"><tspan id="tspan6015" x="5733.017" y="1534.242" style="font-size:249.856px;line-height:1.25;text-align:end;text-anchor:end;stroke-width:.871795px">Save Setting</tspan></text><text xml:space="preserve" style="font-style:normal;font-weight:400;font-size:10.4615px;line-height:0%;font-family:sans-serif;letter-spacing:0;word-spacing:0;fill:#000;fill-opacity:1;stroke:none;stroke-width:.871795px;stroke-linecap:butt;stroke-linejoin:miter;stroke-opacity:1" id="text4221" x="1482.297" y="1168.569"><tspan id="tspan4219" x="1482.297" y="1168.569" style="font-size:249.856px;line-height:1.25;text-align:end;text-anchor:end;stroke-width:.871795px">Enter OSD Menu (CMS)</tspan></text><text xml:space="preserve" style="font-style:normal;font-weight:400;font-size:10.4615px;line-height:0%;font-family:sans-serif;letter-spacing:0;word-spacing:0;fill:#000;fill-opacity:1;stroke:none;stroke-width:.871795px;stroke-linecap:butt;stroke-linejoin:miter;stroke-opacity:1" id="text7907" x="2256.414" y="-2735.034"><tspan id="tspan7909" x="2256.414" y="-2735.034" style="font-size:307.62px;line-height:1.25;text-align:center;text-anchor:middle;stroke-width:.871795px">Mode 2 Stick Functions</tspan></text><rect style="display:inline;opacity:1;fill:none;fill-opacity:1;stroke:gray;stroke-width:9.63909;stroke-miterlimit:4;stroke-dasharray:none;stroke-opacity:1" id="rect927" width="251.899" height="251.899" x="1584.117" y="-1217.665" ry="0"/><rect id="rect931" width="251.899" height="251.899" x="1937.816" y="-1217.665" ry="0" style="display:inline;opacity:1;fill:none;fill-opacity:1;stroke:gray;stroke-width:9.63909;stroke-miterlimit:4;stroke-dasharray:none;stroke-opacity:1"/><path id="path933" d="m 1917.5745,-1063.4556 c -9.2173,0 -16.6894,-12.7949 -16.6894,-28.5782 0,-15.7834 7.4721,-28.5783 16.6894,-28.5783 9.2174,0 142.6219,12.7949 142.6219,28.5783 0,15.7833 -133.4045,28.5782 -142.6219,28.5782 z" style="display:inline;opacity:1;fill:#000;fill-opacity:1;stroke:#000;stroke-width:7.04219;stroke-miterlimit:4;stroke-dasharray:none;stroke-opacity:1"/><text xml:space="preserve" style="font-style:normal;font-weight:400;font-size:10.4615px;line-height:0%;font-family:sans-serif;letter-spacing:0;word-spacing:0;fill:#000;fill-opacity:1;stroke:none;stroke-width:.871795px;stroke-linecap:butt;stroke-linejoin:miter;stroke-opacity:1" id="text937" x="1460.902" y="-1000.169"><tspan id="tspan935" x="1460.902" y="-1000.169" style="font-size:249.856px;line-height:1.25;text-align:end;text-anchor:end;stroke-width:.871795px">Battery profile 1</tspan></text><rect style="display:inline;opacity:1;fill:none;fill-opacity:1;stroke:gray;stroke-width:9.63909;stroke-miterlimit:4;stroke-dasharray:none;stroke-opacity:1" id="rect943" width="251.899" height="251.899" x="1937.816" y="-851.155" ry="0"/><path id="path945" d="m 2092.3444,-868.80162 c 0,-9.21731 -12.7949,-16.68946 -28.5782,-16.68946 -15.7833,0 -28.5783,7.47215 -28.5783,16.68946 0,9.2174 12.7949,142.62188 28.5783,142.62188 15.7833,0 28.5783,-133.40448 28.5782,-142.62188 z" style="opacity:1;fill:#000;fill-opacity:1;stroke:#000;stroke-width:7.04219;stroke-miterlimit:4;stroke-dasharray:none;stroke-opacity:1"/><text id="text949" x="1460.902" y="-633.659" style="font-style:normal;font-weight:400;font-size:10.4615px;line-height:0%;font-family:sans-serif;letter-spacing:0;word-spacing:0;fill:#000;fill-opacity:1;stroke:none;stroke-width:.871795px;stroke-linecap:butt;stroke-linejoin:miter;stroke-opacity:1" xml:space="preserve"><tspan style="font-size:249.856px;line-height:1.25;text-align:end;text-anchor:end;stroke-width:.871795px" id="tspan947" x="1460.902" y="-633.659">Battery profile 2</tspan></text><rect id="rect955" width="251.899" height="251.899" x="1937.816" y="-484.645" ry="0" style="display:inline;opacity:1;fill:none;fill-opacity:1;stroke:gray;stroke-width:9.63909;stroke-miterlimit:4;stroke-dasharray:none;stroke-opacity:1"/><path style="display:inline;opacity:1;fill:#000;fill-opacity:1;stroke:#000;stroke-width:7.04219;stroke-miterlimit:4;stroke-dasharray:none;stroke-opacity:1" id="path957" d="m 2209.0683,-387.15229 c 9.2174,0 16.6896,12.79491 16.6896,28.57822 0,15.78332 -7.4722,28.57822 -16.6896,28.57822 -9.2173,1e-5 -142.6219,-12.79489 -142.6219,-28.57822 0,-15.78332 133.4046,-28.57823 142.6219,-28.57822 z"/><text xml:space="preserve" style="font-style:normal;font-weight:400;font-size:10.4615px;line-height:0%;font-family:sans-serif;letter-spacing:0;word-spacing:0;fill:#000;fill-opacity:1;stroke:none;stroke-width:.871795px;stroke-linecap:butt;stroke-linejoin:miter;stroke-opacity:1" id="text961" x="1460.902" y="-267.149"><tspan id="tspan959" x="1460.902" y="-267.149" style="font-size:249.856px;line-height:1.25;text-align:end;text-anchor:end;stroke-width:.871795px">Battery profile 3</tspan></text><path id="path963" d="m 1628.432,-1214.9324 c -6.5176,-6.5177 -20.8486,-2.7539 -32.0091,8.4065 -11.1605,11.1606 -14.9242,25.4915 -8.4066,32.0092 6.5177,6.5176 109.8963,91.8015 121.0567,80.641 11.1605,-11.1605 -74.1233,-114.5391 -80.641,-121.0567 z" style="display:inline;opacity:1;fill:#000;fill-opacity:1;stroke:#000;stroke-width:7.04219;stroke-miterlimit:4;stroke-dasharray:none;stroke-opacity:1"/><rect id="rect973" width="251.899" height="251.899" x="1579.362" y="-851.155" ry="0" style="display:inline;opacity:1;fill:none;fill-opacity:1;stroke:gray;stroke-width:9.63909;stroke-miterlimit:4;stroke-dasharray:none;stroke-opacity:1"/><path style="display:inline;opacity:1;fill:#000;fill-opacity:1;stroke:#000;stroke-width:7.04219;stroke-miterlimit:4;stroke-dasharray:none;stroke-opacity:1" id="path975" d="m 1623.6772,-848.42269 c -6.5177,-6.51771 -20.8487,-2.75391 -32.0092,8.40654 -11.1604,11.16055 -14.9242,25.49146 -8.4066,32.00917 6.5177,6.51763 109.8963,91.80148 121.0568,80.64103 11.1605,-11.16055 -74.1234,-114.53912 -80.641,-121.05674 z"/><rect style="display:inline;opacity:1;fill:none;fill-opacity:1;stroke:gray;stroke-width:9.63909;stroke-miterlimit:4;stroke-dasharray:none;stroke-opacity:1" id="rect977" width="251.899" height="251.899" x="1579.362" y="-487.196" ry="0"/><path id="path979" d="m 1623.6772,-484.46368 c -6.5177,-6.51772 -20.8486,-2.75392 -32.0091,8.40654 -11.1605,11.16054 -14.9243,25.49146 -8.4066,32.00917 6.5176,6.51762 109.8962,91.80148 121.0567,80.64102 11.1605,-11.16054 -74.1234,-114.53911 -80.641,-121.05673 z" style="display:inline;opacity:1;fill:#000;fill-opacity:1;stroke:#000;stroke-width:7.04219;stroke-miterlimit:4;stroke-dasharray:none;stroke-opacity:1"/><rect id="rect5919-6" width="251.899" height="251.899" x="-2190.673" y="-1224.58" ry="0" style="display:inline;opacity:1;fill:none;fill-opacity:1;stroke:gray;stroke-width:9.63909;stroke-miterlimit:4;stroke-dasharray:none;stroke-opacity:1" transform="scale(-1)"/><path id="path5923-2" d="m 2036.1448,954.08719 c 0,-9.2173 12.7949,-16.6895 28.5782,-16.6895 15.7833,0 28.5782,7.4722 28.5782,16.6895 0,9.2174 -12.7949,142.62191 -28.5782,142.62191 -15.7833,0 -28.5782,-133.40451 -28.5782,-142.62191 z" style="display:inline;opacity:1;fill:#000;fill-opacity:1;stroke:#000;stroke-width:7.04219;stroke-miterlimit:4;stroke-dasharray:none;stroke-opacity:1"/><rect id="rect5733-9" width="251.899" height="251.899" x="-1837.812" y="972.846" ry="0" style="display:inline;opacity:1;fill:none;fill-opacity:1;stroke:gray;stroke-width:9.63909;stroke-miterlimit:4;stroke-dasharray:none;stroke-opacity:1" transform="scale(-1,1)"/><path style="display:inline;opacity:1;fill:#000;fill-opacity:1;stroke:#000;stroke-width:7.04219;stroke-miterlimit:4;stroke-dasharray:none;stroke-opacity:1" id="path5747-5" d="m 1566.5607,1070.3388 c -9.2173,0 -16.6895,12.7949 -16.6895,28.5782 0,15.7833 7.4722,28.5782 16.6895,28.5782 9.2174,0 142.6219,-12.7949 142.6219,-28.5782 0,-15.7833 -133.4045,-28.5782 -142.6219,-28.5782 z"/><rect id="rect5867-9" width="251.899" height="251.899" x="5828.351" y="251.641" ry="0" style="display:inline;fill:none;fill-opacity:1;stroke:gray;stroke-width:9.63909;stroke-miterlimit:4;stroke-dasharray:none;stroke-opacity:1"/><path id="path5871-2" d="m 5982.8787,522.13367 c 0,9.21732 -12.7949,16.68947 -28.5782,16.68947 -15.7833,0 -28.5782,-7.47215 -28.5782,-16.68947 0,-9.2174 12.7949,-142.62189 28.5782,-142.62189 15.7833,0 28.5782,133.40449 28.5782,142.62189 z" style="display:inline;fill:#000;fill-opacity:1;stroke:#000;stroke-width:7.04219;stroke-miterlimit:4;stroke-dasharray:none;stroke-opacity:1"/><rect style="display:inline;fill:none;fill-opacity:1;stroke:gray;stroke-width:9.63909;stroke-miterlimit:4;stroke-dasharray:none;stroke-opacity:1" id="rect5889-9" width="251.899" height="251.899" x="6182.05" y="251.641" ry="0"/><text id="text5909-4" x="5710.976" y="445.778" style="font-style:normal;font-weight:400;font-size:10.4615px;line-height:0%;font-family:sans-serif;letter-spacing:0;word-spacing:0;display:inline;fill:#000;fill-opacity:1;stroke:none;stroke-width:.871795px;stroke-linecap:butt;stroke-linejoin:miter;stroke-opacity:1" xml:space="preserve"><tspan style="font-size:249.856px;line-height:1.25;text-align:end;text-anchor:end;stroke-width:.871795px" id="tspan5911-7" x="5710.976" y="445.778">Inc WP Mission Index</tspan></text><rect id="rect5919-68" width="251.899" height="251.899" x="5828.351" y="618.15" ry="0" style="display:inline;fill:none;fill-opacity:1;stroke:gray;stroke-width:9.63909;stroke-miterlimit:4;stroke-dasharray:none;stroke-opacity:1"/><path id="path5923-8" d="m 5982.8787,888.6434 c 0,9.2173 -12.7949,16.6895 -28.5782,16.6895 -15.7833,0 -28.5782,-7.4722 -28.5782,-16.6895 0,-9.2174 12.7949,-142.62191 28.5782,-142.62191 15.7833,0 28.5782,133.40451 28.5782,142.62191 z" style="display:inline;fill:#000;fill-opacity:1;stroke:#000;stroke-width:7.04219;stroke-miterlimit:4;stroke-dasharray:none;stroke-opacity:1"/><rect id="rect5919-7-3" width="251.899" height="251.899" x="5835.851" y="975.05" ry="0" style="display:inline;fill:none;fill-opacity:1;stroke:gray;stroke-width:9.63909;stroke-miterlimit:4;stroke-dasharray:none;stroke-opacity:1"/><rect style="display:inline;fill:none;fill-opacity:1;stroke:gray;stroke-width:9.63909;stroke-miterlimit:4;stroke-dasharray:none;stroke-opacity:1" id="rect5941-4" width="251.899" height="251.899" x="6182.05" y="618.15" ry="0"/><text id="text5961-7" x="5710.976" y="812.287" style="font-style:normal;font-weight:400;font-size:10.4615px;line-height:0%;font-family:sans-serif;letter-spacing:0;word-spacing:0;display:inline;fill:#000;fill-opacity:1;stroke:none;stroke-width:.871795px;stroke-linecap:butt;stroke-linejoin:miter;stroke-opacity:1" xml:space="preserve"><tspan style="font-size:249.856px;line-height:1.25;text-align:end;text-anchor:end;stroke-width:.871795px" id="tspan5963-2" x="5710.976" y="812.287">Dec WP Mission Index</tspan></text><text id="text5961-3-3" x="5722.445" y="1178.02" style="font-style:normal;font-weight:400;font-size:10.4615px;line-height:0%;font-family:sans-serif;letter-spacing:0;word-spacing:0;display:inline;fill:#000;fill-opacity:1;stroke:none;stroke-width:.871795px;stroke-linecap:butt;stroke-linejoin:miter;stroke-opacity:1" xml:space="preserve"><tspan style="font-size:249.856px;line-height:1.25;text-align:end;text-anchor:end;stroke-width:.871795px" id="tspan5963-6-6" x="5722.445" y="1178.02">Bypass NAV Arm Disable</tspan></text><rect id="rect5993-3-0" width="251.899" height="251.899" x="6199.631" y="970.475" ry="0" style="display:inline;fill:none;fill-opacity:1;stroke:gray;stroke-width:9.63909;stroke-miterlimit:4;stroke-dasharray:none;stroke-opacity:1"/><path style="display:inline;fill:#000;fill-opacity:1;stroke:#000;stroke-width:7.04219;stroke-miterlimit:4;stroke-dasharray:none;stroke-opacity:1" id="path5747-5-5" d="m 6167.0503,719.40045 c -9.2173,0 -16.6895,12.7949 -16.6895,28.5782 0,15.7833 7.4722,28.5782 16.6895,28.5782 9.2174,0 142.6219,-12.7949 142.6219,-28.5782 0,-15.7833 -133.4045,-28.5782 -142.6219,-28.5782 z"/><path style="display:inline;fill:#000;fill-opacity:1;stroke:#000;stroke-width:7.04219;stroke-miterlimit:4;stroke-dasharray:none;stroke-opacity:1" id="path957-2" d="m 6445.1997,351.01581 c 9.2174,0 16.6896,12.7949 16.6896,28.5782 0,15.7833 -7.4722,28.5782 -16.6896,28.5782 -9.2173,10e-5 -142.6219,-12.7948 -142.6219,-28.5782 0,-15.7833 133.4046,-28.5782 142.6219,-28.5782 z"/><path id="path5977-2" d="m 6033.375,1215.6993 c 6.5177,6.5177 20.8487,2.7539 32.0092,-8.4066 11.1605,-11.1605 14.9243,-25.4914 8.4065,-32.0091 -6.5176,-6.5177 -109.8962,-91.8015 -121.0567,-80.6411 -11.1605,11.1606 74.1234,114.5392 80.641,121.0568 z" style="display:inline;fill:#000;fill-opacity:1;stroke:#000;stroke-width:7.04219;stroke-miterlimit:4;stroke-dasharray:none;stroke-opacity:1"/><ellipse style="fill:#000;fill-rule:evenodd;stroke-width:.9375" id="path17572" cx="6318.067" cy="1099.102" rx="42.301" ry="47.002"/></g></svg>